<mxfile host="Electron" agent="Mozilla/5.0 (Macintosh; Intel Mac OS X 10_15_7) AppleWebKit/537.36 (KHTML, like Gecko) draw.io/28.1.2 Chrome/138.0.7204.243 Electron/37.4.0 Safari/537.36" version="28.1.2">
  <diagram name="Seite-1" id="NrbdtOU8l5xmAe7ymhUr">
    <mxGraphModel dx="1282" dy="704" grid="1" gridSize="10" guides="1" tooltips="1" connect="1" arrows="1" fold="1" page="1" pageScale="1" pageWidth="827" pageHeight="1169" math="0" shadow="0">
      <root>
        <mxCell id="0" />
        <mxCell id="1" parent="0" />
        <mxCell id="a6-sa-Pfjen3ggbp_8G2-75" value="/buch/infra" style="rounded=0;whiteSpace=wrap;html=1;labelPosition=center;verticalLabelPosition=middle;align=center;verticalAlign=top;strokeColor=#FF0000;" parent="1" vertex="1">
          <mxGeometry x="140" y="45" width="420" height="540" as="geometry" />
        </mxCell>
        <mxCell id="a6-sa-Pfjen3ggbp_8G2-77" value="/buch/usecase" style="rounded=0;whiteSpace=wrap;html=1;labelPosition=center;verticalLabelPosition=middle;align=center;verticalAlign=top;strokeColor=#FF8000;" parent="1" vertex="1">
          <mxGeometry x="180" y="180" width="340" height="305" as="geometry" />
        </mxCell>
        <mxCell id="a6-sa-Pfjen3ggbp_8G2-78" value="/buch/domain" style="rounded=0;whiteSpace=wrap;html=1;labelPosition=center;verticalLabelPosition=middle;align=center;verticalAlign=top;strokeColor=#009900;" parent="1" vertex="1">
          <mxGeometry x="293.88" y="220" width="190" height="230" as="geometry" />
        </mxCell>
        <mxCell id="e4J6PHtqbG1h1pFYvfZ6-1" style="edgeStyle=orthogonalEdgeStyle;rounded=0;orthogonalLoop=1;jettySize=auto;html=1;exitX=0.5;exitY=1;exitDx=0;exitDy=0;entryX=0.25;entryY=0;entryDx=0;entryDy=0;" edge="1" parent="1" source="a6-sa-Pfjen3ggbp_8G2-81" target="a6-sa-Pfjen3ggbp_8G2-77">
          <mxGeometry relative="1" as="geometry" />
        </mxCell>
        <mxCell id="a6-sa-Pfjen3ggbp_8G2-81" value="BuchRestController" style="rounded=0;whiteSpace=wrap;html=1;labelPosition=center;verticalLabelPosition=middle;align=center;verticalAlign=middle;" parent="1" vertex="1">
          <mxGeometry x="180" y="90" width="130" height="40" as="geometry" />
        </mxCell>
        <mxCell id="a6-sa-Pfjen3ggbp_8G2-82" style="edgeStyle=orthogonalEdgeStyle;rounded=0;orthogonalLoop=1;jettySize=auto;html=1;exitX=0.5;exitY=1;exitDx=0;exitDy=0;entryX=0.5;entryY=0;entryDx=0;entryDy=0;" parent="1" source="a6-sa-Pfjen3ggbp_8G2-83" target="a6-sa-Pfjen3ggbp_8G2-85" edge="1">
          <mxGeometry relative="1" as="geometry" />
        </mxCell>
        <mxCell id="a6-sa-Pfjen3ggbp_8G2-83" value="BuchDomainService" style="rounded=0;whiteSpace=wrap;html=1;labelPosition=center;verticalLabelPosition=middle;align=center;verticalAlign=middle;fontStyle=0" parent="1" vertex="1">
          <mxGeometry x="313.88" y="265" width="150" height="40" as="geometry" />
        </mxCell>
        <mxCell id="a6-sa-Pfjen3ggbp_8G2-84" style="edgeStyle=orthogonalEdgeStyle;rounded=0;orthogonalLoop=1;jettySize=auto;html=1;exitX=0.5;exitY=1;exitDx=0;exitDy=0;entryX=0.5;entryY=0;entryDx=0;entryDy=0;" parent="1" source="a6-sa-Pfjen3ggbp_8G2-85" target="a6-sa-Pfjen3ggbp_8G2-86" edge="1">
          <mxGeometry relative="1" as="geometry" />
        </mxCell>
        <mxCell id="a6-sa-Pfjen3ggbp_8G2-85" value="BuchJpaRepository&lt;div&gt;Interface&lt;/div&gt;" style="rounded=0;whiteSpace=wrap;html=1;labelPosition=center;verticalLabelPosition=middle;align=center;verticalAlign=middle;" parent="1" vertex="1">
          <mxGeometry x="313.88" y="325" width="150" height="40" as="geometry" />
        </mxCell>
        <mxCell id="a6-sa-Pfjen3ggbp_8G2-86" value="BuchDomainJpaEntity" style="rounded=0;whiteSpace=wrap;html=1;labelPosition=center;verticalLabelPosition=middle;align=center;verticalAlign=middle;fontStyle=0" parent="1" vertex="1">
          <mxGeometry x="313.88" y="385" width="150" height="40" as="geometry" />
        </mxCell>
        <mxCell id="e4J6PHtqbG1h1pFYvfZ6-4" style="edgeStyle=orthogonalEdgeStyle;rounded=0;orthogonalLoop=1;jettySize=auto;html=1;exitX=0.5;exitY=0;exitDx=0;exitDy=0;entryX=0.5;entryY=1;entryDx=0;entryDy=0;dashed=1;endArrow=block;endFill=0;" edge="1" parent="1" source="a6-sa-Pfjen3ggbp_8G2-87" target="a6-sa-Pfjen3ggbp_8G2-92">
          <mxGeometry relative="1" as="geometry" />
        </mxCell>
        <mxCell id="a6-sa-Pfjen3ggbp_8G2-87" value="BuchRestClient" style="rounded=0;whiteSpace=wrap;html=1;labelPosition=center;verticalLabelPosition=middle;align=center;verticalAlign=middle;fontColor=#FFFF00;" parent="1" vertex="1">
          <mxGeometry x="180" y="520" width="111.75" height="40" as="geometry" />
        </mxCell>
        <mxCell id="e4J6PHtqbG1h1pFYvfZ6-3" style="edgeStyle=orthogonalEdgeStyle;rounded=0;orthogonalLoop=1;jettySize=auto;html=1;exitX=0.5;exitY=1;exitDx=0;exitDy=0;entryX=0;entryY=0.5;entryDx=0;entryDy=0;" edge="1" parent="1" source="a6-sa-Pfjen3ggbp_8G2-89" target="a6-sa-Pfjen3ggbp_8G2-78">
          <mxGeometry relative="1" as="geometry" />
        </mxCell>
        <mxCell id="a6-sa-Pfjen3ggbp_8G2-89" value="Buch&lt;div&gt;&lt;span style=&quot;background-color: transparent; color: light-dark(rgb(0, 0, 0), rgb(255, 255, 255));&quot;&gt;UseCases&lt;/span&gt;&lt;/div&gt;" style="rounded=0;whiteSpace=wrap;html=1;labelPosition=center;verticalLabelPosition=middle;align=center;verticalAlign=middle;fontStyle=0" parent="1" vertex="1">
          <mxGeometry x="202" y="220" width="67.75" height="40" as="geometry" />
        </mxCell>
        <mxCell id="a6-sa-Pfjen3ggbp_8G2-92" value="Buch&lt;div&gt;Client&lt;div&gt;Interface&lt;/div&gt;&lt;/div&gt;" style="rounded=0;whiteSpace=wrap;html=1;labelPosition=center;verticalLabelPosition=middle;align=center;verticalAlign=middle;fontStyle=0;fontColor=#FFFF00;" parent="1" vertex="1">
          <mxGeometry x="203.75" y="390" width="66" height="60" as="geometry" />
        </mxCell>
        <mxCell id="e4J6PHtqbG1h1pFYvfZ6-2" value="ddd onion&amp;nbsp;&lt;div&gt;split client&lt;/div&gt;" style="rounded=0;whiteSpace=wrap;html=1;dashed=1;" vertex="1" parent="1">
          <mxGeometry x="470" y="55" width="80" height="45" as="geometry" />
        </mxCell>
      </root>
    </mxGraphModel>
  </diagram>
</mxfile>
